<mxfile host="app.diagrams.net" modified="2024-07-18T06:42:06.118Z" agent="Mozilla/5.0 (Windows NT 10.0; Win64; x64) AppleWebKit/537.36 (KHTML, like Gecko) Chrome/126.0.0.0 Safari/537.36" etag="jPqkbYxhiqKXcxAXUTnb" version="24.7.1" type="device">
  <diagram name="Page-1" id="cedK8oNqMuEcbpcuWRkB">
    <mxGraphModel dx="954" dy="592" grid="1" gridSize="10" guides="1" tooltips="1" connect="1" arrows="1" fold="1" page="1" pageScale="1" pageWidth="827" pageHeight="1169" math="0" shadow="0">
      <root>
        <mxCell id="0" />
        <mxCell id="1" parent="0" />
        <mxCell id="NifXxNL8f3ksS69ARy3y-1" value="Normal RW speed&lt;div&gt;3500/3300 MBps&lt;/div&gt;&lt;div&gt;For NVME&lt;/div&gt;" style="rounded=0;whiteSpace=wrap;html=1;" vertex="1" parent="1">
          <mxGeometry x="230" y="60" width="120" height="60" as="geometry" />
        </mxCell>
        <mxCell id="NifXxNL8f3ksS69ARy3y-2" value="NVME SSD&#39;s are upto 7x faster than the regular SATA SSD&#39;s" style="rounded=0;whiteSpace=wrap;html=1;" vertex="1" parent="1">
          <mxGeometry x="40" y="200" width="360" height="60" as="geometry" />
        </mxCell>
        <mxCell id="NifXxNL8f3ksS69ARy3y-5" value="" style="edgeStyle=orthogonalEdgeStyle;rounded=0;orthogonalLoop=1;jettySize=auto;html=1;" edge="1" parent="1" source="NifXxNL8f3ksS69ARy3y-3" target="NifXxNL8f3ksS69ARy3y-4">
          <mxGeometry relative="1" as="geometry" />
        </mxCell>
        <mxCell id="NifXxNL8f3ksS69ARy3y-3" value="Checking if SSD is NVME" style="rounded=0;whiteSpace=wrap;html=1;" vertex="1" parent="1">
          <mxGeometry x="460" y="60" width="120" height="60" as="geometry" />
        </mxCell>
        <mxCell id="NifXxNL8f3ksS69ARy3y-4" value="Check the Hardware&amp;nbsp;&lt;div&gt;Id property&lt;/div&gt;" style="whiteSpace=wrap;html=1;rounded=0;" vertex="1" parent="1">
          <mxGeometry x="460" y="200" width="120" height="60" as="geometry" />
        </mxCell>
      </root>
    </mxGraphModel>
  </diagram>
</mxfile>
